<svg width="61" height="52" viewBox="0 0 61 52" fill="none" xmlns="http://www.w3.org/2000/svg">
<path d="M8.85491 51.8496V38.2724H49.764C49.7603 40.0594 49.4046 41.8281 48.7173 43.4777C48.03 45.1272 47.0245 46.6251 45.7582 47.886C44.4919 49.147 42.9897 50.1461 41.3373 50.8264C39.6849 51.5067 37.9146 51.8549 36.1276 51.851L8.85491 51.8496ZM0.673096 32.842V19.2634H57.9458C58.6675 19.2618 59.3603 19.547 59.8717 20.0562C60.3832 20.5654 60.6714 21.2569 60.6731 21.9786V30.1267C60.6714 30.8484 60.3832 31.5399 59.8717 32.0491C59.3603 32.5583 58.6675 32.8435 57.9458 32.842H0.673096ZM8.85491 13.8358V0.257204H36.1276C37.9146 0.25328 39.6849 0.601402 41.3373 1.28169C42.9898 1.96198 44.492 2.96111 45.7583 4.22202C47.0246 5.48293 48.0301 6.98094 48.7174 8.63048C49.4047 10.28 49.7603 12.0488 49.764 13.8358H8.85491Z" fill="#22C55E"/>
</svg>
